<svg width="220" height="36" viewBox="0 0 220 36" fill="none" xmlns="http://www.w3.org/2000/svg">
<circle cx="18" cy="18" r="17.5" stroke="#555555"/>
<path d="M21.6 12H14.4C13.0745 12 12 13.0745 12 14.4V21.6C12 22.9255 13.0745 24 14.4 24H21.6C22.9255 24 24 22.9255 24 21.6V14.4C24.0001 13.0745 22.9255 12 21.6 12ZM20.4 13.8H22.2V15.6H20.4V13.8ZM18 15.6001C19.3255 15.6001 20.4 16.6746 20.4 18.0001C20.4 19.3255 19.3255 20.4 18 20.4C16.6745 20.4 15.6 19.3255 15.6 18.0001C15.6 16.6746 16.6745 15.6001 18 15.6001ZM22.8 21.6001C22.8 22.2628 22.2627 22.8001 21.6 22.8001H14.4C13.7373 22.8001 13.2 22.2628 13.2 21.6001V17.4H14.46C14.0996 19.3553 15.3926 21.2325 17.3479 21.5929C19.3032 21.9533 21.1804 20.6603 21.5408 18.705C21.5836 18.4725 21.6035 18.2364 21.6 18.0001C21.597 17.7987 21.577 17.598 21.54 17.4001H22.8V21.6001H22.8Z" fill="#555555"/>
<circle cx="64" cy="18" r="17.5" stroke="#555555"/>
<path d="M62.9886 24C61.9308 24 60.9163 23.5966 60.1682 22.8785C59.4202 22.1604 59 21.1864 59 20.1709C59 19.1554 59.4202 18.1814 60.1682 17.4633C60.9163 16.7452 61.9308 16.3418 62.9886 16.3418H63.9625V18.2105H62.9886C62.5841 18.2105 62.1886 18.3257 61.8522 18.5415C61.5159 18.7572 61.2537 19.0639 61.0989 19.4227C60.9441 19.7815 60.9036 20.1764 60.9825 20.5573C61.0614 20.9382 61.2562 21.2881 61.5423 21.5627C61.8283 21.8373 62.1928 22.0243 62.5896 22.1001C62.9864 22.1759 63.3976 22.137 63.7714 21.9883C64.1452 21.8397 64.4646 21.588 64.6894 21.2651C64.9141 20.9422 65.0341 20.5626 65.0341 20.1742V12H66.9807V12.9338C66.9807 13.4546 67.1962 13.9541 67.5798 14.3223C67.9634 14.6906 68.4836 14.8975 69.0261 14.8975H70V16.7629H69.0193C68.2984 16.7639 67.591 16.5753 66.9739 16.2175V20.1709C66.973 21.1856 66.5529 22.1586 65.8058 22.8764C65.0587 23.5942 64.0456 23.9983 62.9886 24Z" fill="#555555"/>
<circle cx="110" cy="18" r="17.5" stroke="#555555"/>
<path d="M116.988 14.5648C116.824 13.9529 116.341 13.4706 115.729 13.3058C114.612 13 110.141 13 110.141 13C110.141 13 105.671 13 104.553 13.2942C103.953 13.4588 103.459 13.953 103.294 14.5648C103 15.6823 103 18 103 18C103 18 103 20.3294 103.294 21.4352C103.459 22.047 103.941 22.5294 104.553 22.6941C105.682 23 110.141 23 110.141 23C110.141 23 114.612 23 115.729 22.7058C116.341 22.5411 116.824 22.0588 116.988 21.447C117.282 20.3294 117.282 18.0118 117.282 18.0118C117.282 18.0118 117.294 15.6823 116.988 14.5648ZM108.718 20.1412V15.8588L112.435 18L108.718 20.1412Z" fill="#555555"/>
<circle cx="156" cy="18" r="17.5" stroke="#555555"/>
<path fill-rule="evenodd" clip-rule="evenodd" d="M153.918 12H150.066L154.53 18.6281L150 24H151.588L155.235 19.6747L158.148 24H162L157.376 17.1347L161.706 12H160.118L156.671 16.0879L153.918 12ZM155.499 17.9239L152.282 13.2286H153.213L155.951 17.2237L156.388 17.8614L159.776 22.8054H158.844L155.979 18.6242L155.499 17.9239Z" fill="#555555"/>
<circle cx="202" cy="18" r="17.5" stroke="#555555"/>
<path d="M200.333 14.6667V16H199V18H200.333V24H203V18H204.773L205 16H203V14.8334C203 14.2934 203.053 14.0067 203.887 14.0067H205V12H203.213C201.08 12.0001 200.333 13 200.333 14.6667Z" fill="#555555"/>
</svg>
