<svg width="21" height="17" viewBox="0 0 21 17" fill="none" xmlns="http://www.w3.org/2000/svg">
<path d="M18.8887 1.55421C17.8506 0.55606 16.4769 0 15.0491 0C13.6212 0 12.2475 0.55606 11.2094 1.55421L10.5 2.24289L9.79063 1.55421C8.75514 0.549292 7.37729 -0.00765789 5.94682 0.000470637C4.51902 -0.00635871 3.14421 0.550561 2.11125 1.55421C1.60276 2.0382 1.19736 2.6234 0.920188 3.27353C0.64302 3.92365 0.5 4.62483 0.5 5.33357C0.5 6.0423 0.64302 6.74348 0.920188 7.3936C1.19736 8.04373 1.60276 8.62894 2.11125 9.11292L9.9391 16.7724C10.0159 16.8408 10.102 16.8974 10.1948 16.9404C10.3908 17.0199 10.6092 17.0199 10.8052 16.9404C10.898 16.8974 10.9841 16.8408 11.0609 16.7724L18.8887 9.11292C19.3972 8.62894 19.8026 8.04373 20.0798 7.3936C20.357 6.74348 20.5 6.0423 20.5 5.33357C20.5 4.62483 20.357 3.92365 20.0798 3.27353C19.8026 2.6234 19.3972 2.0382 18.8887 1.55421ZM18.8887 5.31677C18.8911 5.81361 18.7943 6.30576 18.6043 6.7634C18.4143 7.22103 18.1351 7.63463 17.7834 7.97912L10.5 15.1179L3.2248 7.97912C2.86775 7.63749 2.58319 7.22502 2.38868 6.76713C2.19417 6.30925 2.09382 5.81565 2.09382 5.31677C2.09382 4.81789 2.19417 4.32429 2.38868 3.86641C2.58319 3.40852 2.86775 2.99605 3.2248 2.65442C3.95741 1.94171 4.93359 1.54714 5.94682 1.55421C6.96509 1.5463 7.94671 1.94068 8.68532 2.65442L9.9391 3.88901C10.0159 3.95737 10.102 4.01396 10.1948 4.05698C10.3908 4.13645 10.6092 4.13645 10.8052 4.05698C10.898 4.01396 10.9841 3.95737 11.0609 3.88901L12.3229 2.65442C13.0555 1.94171 14.0317 1.54714 15.0449 1.55421C16.0632 1.5463 17.0448 1.94068 17.7834 2.65442C18.1381 2.99747 18.4204 3.41042 18.6133 3.86813C18.8061 4.32583 18.9055 4.81872 18.9052 5.31677H18.8887Z" fill="#111111"/>
</svg>
