<svg width="21" height="17" viewBox="0 0 21 17" fill="none" xmlns="http://www.w3.org/2000/svg">
<path d="M14.8503 15.3407C14.6314 15.3407 14.4215 15.2534 14.2667 15.0982C14.1119 14.9429 14.0249 14.7324 14.0249 14.5128H12.374C12.374 15.1715 12.6349 15.8032 13.0993 16.2689C13.5637 16.7347 14.1936 16.9963 14.8503 16.9963C15.5071 16.9963 16.137 16.7347 16.6014 16.2689C17.0658 15.8032 17.3267 15.1715 17.3267 14.5128H15.6758C15.6758 14.7324 15.5888 14.9429 15.434 15.0982C15.2792 15.2534 15.0693 15.3407 14.8503 15.3407Z" fill="#111111"/>
<path d="M9.04167 15.3407C8.82275 15.3407 8.6128 15.2534 8.458 15.0982C8.3032 14.9429 8.21623 14.7324 8.21623 14.5128H6.55762C6.55762 14.8394 6.62176 15.1629 6.74639 15.4646C6.87102 15.7664 7.05369 16.0405 7.28397 16.2715C7.51425 16.5025 7.78764 16.6857 8.08852 16.8106C8.3894 16.9356 8.71188 17 9.03754 17C9.36321 17 9.68569 16.9356 9.98657 16.8106C10.2874 16.6857 10.5608 16.5025 10.7911 16.2715C11.0214 16.0405 11.2041 15.7664 11.3287 15.4646C11.4533 15.1629 11.5175 14.8394 11.5175 14.5128H9.86659C9.86659 14.7323 9.7797 14.9428 9.62501 15.098C9.47032 15.2532 9.2605 15.3405 9.04167 15.3407Z" fill="#111111"/>
<path d="M19.8104 1.64401C19.7654 1.63633 19.7198 1.63252 19.6742 1.63263H6.46717C6.24825 1.63263 6.03829 1.71985 5.88349 1.8751C5.72869 2.03035 5.64173 2.24092 5.64173 2.46047C5.64173 2.68003 5.72869 2.8906 5.88349 3.04585C6.03829 3.2011 6.24825 3.28832 6.46717 3.28832H18.6996L18.4814 4.60149L17.3243 11.5668H6.55642L3.74993 4.60149L2.07583 0.482961C1.9873 0.289212 1.82768 0.13717 1.63019 0.0584856C1.43269 -0.020199 1.21255 -0.0194636 1.01559 0.0605389C0.818622 0.140541 0.660009 0.293646 0.572768 0.487983C0.485526 0.682319 0.476378 0.902913 0.547226 1.10384L3.2201 7.68158L5.04432 12.5307C5.17897 12.9389 5.45704 13.2224 5.85841 13.2224H18.0233C18.2188 13.2225 18.4079 13.1531 18.5571 13.0264C18.7063 12.8997 18.8058 12.724 18.8379 12.5307L20.1555 4.60149L20.4888 2.59655C20.5247 2.38002 20.4735 2.15803 20.3462 1.9794C20.219 1.80077 20.0263 1.68013 19.8104 1.64401Z" fill="#111111"/>
</svg>
