<svg width="18" height="17" viewBox="0 0 18 17" fill="none" xmlns="http://www.w3.org/2000/svg">
<path d="M17.3927 15.7682C16.5329 14.3137 15.3061 13.1078 13.8338 12.27C12.3614 11.4322 10.6946 10.9915 8.99845 10.9915C7.30225 10.9915 5.63546 11.4322 4.16314 12.27C2.69082 13.1078 1.46402 14.3137 0.604236 15.7682C0.498976 15.9568 0.472178 16.179 0.529584 16.387C0.556659 16.493 0.606188 16.592 0.674854 16.6774C0.743521 16.7628 0.829737 16.8326 0.927728 16.8821C1.05414 16.9534 1.19716 16.9904 1.34246 16.9894C1.48655 16.9955 1.62952 16.9616 1.75545 16.8917C1.88138 16.8218 1.98536 16.7185 2.0558 16.5933C2.76752 15.3886 3.7833 14.3898 5.00251 13.6958C6.22172 13.0018 7.60204 12.6367 9.00674 12.6367C10.4114 12.6367 11.7918 13.0018 13.011 13.6958C14.2302 14.3898 15.246 15.3886 15.9577 16.5933C16.0685 16.7807 16.2491 16.9169 16.4603 16.9725C16.6715 17.0282 16.8963 16.9986 17.0858 16.8904C17.1801 16.8403 17.2628 16.7711 17.3285 16.6873C17.3943 16.6034 17.4415 16.5067 17.4673 16.4035C17.498 16.298 17.5072 16.1875 17.4944 16.0784C17.4816 15.9693 17.447 15.8638 17.3927 15.7682Z" fill="#111111"/>
<path d="M8.99966 10.2C10.3362 10.2002 11.6195 9.67091 12.5732 8.72594C13.527 7.78097 14.0752 6.49588 14.0997 5.14718C14.0997 3.78206 13.5623 2.47286 12.6059 1.50757C11.6495 0.542291 10.3523 0 8.99966 0C7.64705 0 6.34985 0.542291 5.39341 1.50757C4.43698 2.47286 3.89966 3.78206 3.89966 5.14718C3.92416 6.49588 4.47228 7.78097 5.42607 8.72594C6.37987 9.67091 7.6631 10.2002 8.99966 10.2ZM5.59966 5.14718C5.59966 4.2371 5.95787 3.3643 6.59549 2.72078C7.23312 2.07725 8.09792 1.71573 8.99966 1.71573C9.90139 1.71573 10.7662 2.07725 11.4038 2.72078C12.0414 3.3643 12.3997 4.2371 12.3997 5.14718C12.3997 6.05726 12.0414 6.93006 11.4038 7.57359C10.7662 8.21711 9.90139 8.57864 8.99966 8.57864C8.09792 8.57864 7.23312 8.21711 6.59549 7.57359C5.95787 6.93006 5.59966 6.05726 5.59966 5.14718Z" fill="#111111"/>
</svg>
