<svg width="54" height="10" viewBox="0 0 54 10" fill="none" xmlns="http://www.w3.org/2000/svg">
<path d="M9.96853 3.78143C10.0011 3.88335 10.0043 3.98868 9.9783 4.0974C9.95226 4.20612 9.89692 4.29785 9.81228 4.37259L7.63455 6.37033L8.27908 9.32616C8.29861 9.43488 8.28885 9.5402 8.24978 9.64213C8.21723 9.74405 8.15864 9.82899 8.074 9.89694C7.98286 9.96489 7.8852 9.99887 7.78103 9.99887C7.67687 10.0057 7.57921 9.98188 7.48806 9.92752L4.99783 8.36806L2.5076 9.92752C2.46853 9.94791 2.42296 9.96489 2.37088 9.97848C2.3253 9.99207 2.27973 9.99887 2.23416 9.99887C2.18207 9.99887 2.12674 9.98868 2.06814 9.96829C2.01606 9.9547 1.96723 9.93092 1.92166 9.89694C1.83702 9.82899 1.77517 9.74405 1.73611 9.64213C1.70356 9.5402 1.69705 9.43488 1.71658 9.32616L2.36111 6.37033L0.183377 4.37259C0.0987413 4.29785 0.0434028 4.20612 0.0173611 4.0974C-0.00868056 3.98868 -0.00542535 3.88335 0.0271267 3.78143C0.0596788 3.67271 0.115017 3.58437 0.193142 3.51642C0.277778 3.44847 0.372179 3.4077 0.476345 3.39411L3.36697 3.12911L4.50955 0.336353C4.54861 0.234428 4.61372 0.152888 4.70486 0.0917327C4.79601 0.0305776 4.89366 0 4.99783 0C5.102 0 5.19965 0.0305776 5.2908 0.0917327C5.38194 0.152888 5.44705 0.234428 5.48611 0.336353L6.62869 3.12911L9.51931 3.39411C9.62348 3.4077 9.71463 3.44847 9.79275 3.51642C9.87739 3.58437 9.93598 3.67271 9.96853 3.78143Z" fill="#111111"/>
<path d="M20.9642 3.78143C20.9968 3.88335 21 3.98868 20.974 4.0974C20.9479 4.20612 20.8926 4.29785 20.8079 4.37259L18.6302 6.37033L19.2747 9.32616C19.2943 9.43488 19.2845 9.5402 19.2454 9.64213C19.2129 9.74405 19.1543 9.82899 19.0697 9.89694C18.9785 9.96489 18.8809 9.99887 18.7767 9.99887C18.6725 10.0057 18.5749 9.98188 18.4837 9.92752L15.9935 8.36806L13.5033 9.92752C13.4642 9.94791 13.4186 9.96489 13.3665 9.97848C13.321 9.99207 13.2754 9.99887 13.2298 9.99887C13.1777 9.99887 13.1224 9.98868 13.0638 9.96829C13.0117 9.9547 12.9629 9.93092 12.9173 9.89694C12.8327 9.82899 12.7708 9.74405 12.7318 9.64213C12.6992 9.5402 12.6927 9.43488 12.7122 9.32616L13.3568 6.37033L11.179 4.37259C11.0944 4.29785 11.0391 4.20612 11.013 4.0974C10.987 3.98868 10.9902 3.88335 11.0228 3.78143C11.0553 3.67271 11.1107 3.58437 11.1888 3.51642C11.2734 3.44847 11.3678 3.4077 11.472 3.39411L14.3626 3.12911L15.5052 0.336353C15.5443 0.234428 15.6094 0.152888 15.7005 0.0917327C15.7917 0.0305776 15.8893 0 15.9935 0C16.0977 0 16.1953 0.0305776 16.2865 0.0917327C16.3776 0.152888 16.4427 0.234428 16.4818 0.336353L17.6244 3.12911L20.515 3.39411C20.6191 3.4077 20.7103 3.44847 20.7884 3.51642C20.8731 3.58437 20.9316 3.67271 20.9642 3.78143Z" fill="#111111"/>
<path d="M31.9599 3.78143C31.9924 3.88335 31.9957 3.98868 31.9696 4.0974C31.9436 4.20612 31.8883 4.29785 31.8036 4.37259L29.6259 6.37033L30.2704 9.32616C30.2899 9.43488 30.2802 9.5402 30.2411 9.64213C30.2086 9.74405 30.15 9.82899 30.0653 9.89694C29.9742 9.96489 29.8765 9.99887 29.7724 9.99887C29.6682 10.0057 29.5705 9.98188 29.4794 9.92752L26.9892 8.36806L24.4989 9.92752C24.4599 9.94791 24.4143 9.96489 24.3622 9.97848C24.3166 9.99207 24.2711 9.99887 24.2255 9.99887C24.1734 9.99887 24.1181 9.98868 24.0595 9.96829C24.0074 9.9547 23.9586 9.93092 23.913 9.89694C23.8284 9.82899 23.7665 9.74405 23.7274 9.64213C23.6949 9.5402 23.6884 9.43488 23.7079 9.32616L24.3524 6.37033L22.1747 4.37259C22.0901 4.29785 22.0347 4.20612 22.0087 4.0974C21.9827 3.98868 21.9859 3.88335 22.0185 3.78143C22.051 3.67271 22.1064 3.58437 22.1845 3.51642C22.2691 3.44847 22.3635 3.4077 22.4677 3.39411L25.3583 3.12911L26.5009 0.336353C26.5399 0.234428 26.605 0.152888 26.6962 0.0917327C26.7873 0.0305776 26.885 0 26.9892 0C27.0933 0 27.191 0.0305776 27.2821 0.0917327C27.3733 0.152888 27.4384 0.234428 27.4774 0.336353L28.62 3.12911L31.5106 3.39411C31.6148 3.4077 31.706 3.44847 31.7841 3.51642C31.8687 3.58437 31.9273 3.67271 31.9599 3.78143Z" fill="#111111"/>
<path d="M42.9555 3.78143C42.9881 3.88335 42.9913 3.98868 42.9653 4.0974C42.9392 4.20612 42.8839 4.29785 42.7993 4.37259L40.6215 6.37033L41.266 9.32616C41.2856 9.43488 41.2758 9.5402 41.2368 9.64213C41.2042 9.74405 41.1456 9.82899 41.061 9.89694C40.9698 9.96489 40.8722 9.99887 40.768 9.99887C40.6638 10.0057 40.5662 9.98188 40.475 9.92752L37.9848 8.36806L35.4946 9.92752C35.4555 9.94791 35.4099 9.96489 35.3578 9.97848C35.3123 9.99207 35.2667 9.99887 35.2211 9.99887C35.169 9.99887 35.1137 9.98868 35.0551 9.96829C35.003 9.9547 34.9542 9.93092 34.9086 9.89694C34.824 9.82899 34.7621 9.74405 34.7231 9.64213C34.6905 9.5402 34.684 9.43488 34.7035 9.32616L35.3481 6.37033L33.1703 4.37259C33.0857 4.29785 33.0304 4.20612 33.0043 4.0974C32.9783 3.98868 32.9815 3.88335 33.0141 3.78143C33.0466 3.67271 33.102 3.58437 33.1801 3.51642C33.2647 3.44847 33.3591 3.4077 33.4633 3.39411L36.3539 3.12911L37.4965 0.336353C37.5356 0.234428 37.6007 0.152888 37.6918 0.0917327C37.783 0.0305776 37.8806 0 37.9848 0C38.089 0 38.1866 0.0305776 38.2778 0.0917327C38.3689 0.152888 38.434 0.234428 38.4731 0.336353L39.6157 3.12911L42.5063 3.39411C42.6104 3.4077 42.7016 3.44847 42.7797 3.51642C42.8644 3.58437 42.9229 3.67271 42.9555 3.78143Z" fill="#111111"/>
<path d="M51.7503 9.99886C51.8552 10.0006 51.9574 9.96365 52.039 9.89449C52.1254 9.83625 52.189 9.74734 52.2182 9.64399C52.2475 9.54189 52.2475 9.43298 52.2182 9.33088L51.6009 6.36671L53.7712 4.3732C53.861 4.30709 53.9275 4.21168 53.9603 4.10183C53.9852 3.99556 53.9852 3.88455 53.9603 3.77828C53.9317 3.6719 53.8683 3.57951 53.7811 3.51734C53.7041 3.45067 53.6111 3.40736 53.5123 3.3921L50.6054 3.13117L49.4706 0.333991C49.4296 0.234198 49.36 0.150279 49.2715 0.093935C49.1863 0.0332073 49.0858 0.000500933 48.9828 0V8.34978L51.4616 9.9258C51.5485 9.98039 51.6492 10.0059 51.7503 9.99886Z" fill="#C8C8C8"/>
<path d="M46.2113 9.99886C46.1064 10.0006 46.0042 9.96365 45.9226 9.89449C45.8362 9.83625 45.7726 9.74734 45.7434 9.64399C45.7141 9.54189 45.7141 9.43298 45.7434 9.33088L46.3607 6.36671L44.1905 4.3732C44.1006 4.30709 44.0341 4.21168 44.0013 4.10183C43.9764 3.99556 43.9764 3.88455 44.0013 3.77828C44.0299 3.6719 44.0934 3.57951 44.1805 3.51734C44.2575 3.45067 44.3505 3.40736 44.4493 3.3921L47.3562 3.13117L48.4911 0.333991C48.532 0.234198 48.6016 0.150279 48.6902 0.093935C48.7753 0.0332073 48.8758 0.000500933 48.9789 0V8.34978L46.5 9.9258C46.4131 9.98039 46.3124 10.0059 46.2113 9.99886Z" fill="#111111"/>
</svg>
