<svg width="54" height="10" viewBox="0 0 54 10" fill="none" xmlns="http://www.w3.org/2000/svg">
<path d="M9.96853 3.78143C10.0011 3.88335 10.0043 3.98868 9.9783 4.0974C9.95226 4.20612 9.89692 4.29785 9.81228 4.37259L7.63455 6.37033L8.27908 9.32616C8.29861 9.43488 8.28885 9.5402 8.24978 9.64213C8.21723 9.74405 8.15864 9.82899 8.074 9.89694C7.98286 9.96489 7.8852 9.99887 7.78103 9.99887C7.67687 10.0057 7.57921 9.98188 7.48806 9.92752L4.99783 8.36806L2.5076 9.92752C2.46853 9.94791 2.42296 9.96489 2.37088 9.97848C2.3253 9.99207 2.27973 9.99887 2.23416 9.99887C2.18207 9.99887 2.12674 9.98868 2.06814 9.96829C2.01606 9.9547 1.96723 9.93092 1.92166 9.89694C1.83702 9.82899 1.77517 9.74405 1.73611 9.64213C1.70356 9.5402 1.69705 9.43488 1.71658 9.32616L2.36111 6.37033L0.183377 4.37259C0.0987413 4.29785 0.0434028 4.20612 0.0173611 4.0974C-0.00868056 3.98868 -0.00542535 3.88335 0.0271267 3.78143C0.0596788 3.67271 0.115017 3.58437 0.193142 3.51642C0.277778 3.44847 0.372179 3.4077 0.476345 3.39411L3.36697 3.12911L4.50955 0.336353C4.54861 0.234428 4.61372 0.152888 4.70486 0.0917327C4.79601 0.0305776 4.89366 0 4.99783 0C5.102 0 5.19965 0.0305776 5.2908 0.0917327C5.38194 0.152888 5.44705 0.234428 5.48611 0.336353L6.62869 3.12911L9.51931 3.39411C9.62348 3.4077 9.71463 3.44847 9.79275 3.51642C9.87739 3.58437 9.93598 3.67271 9.96853 3.78143Z" fill="#111111"/>
<path d="M20.9642 3.78143C20.9968 3.88335 21 3.98868 20.974 4.0974C20.9479 4.20612 20.8926 4.29785 20.8079 4.37259L18.6302 6.37033L19.2747 9.32616C19.2943 9.43488 19.2845 9.5402 19.2454 9.64213C19.2129 9.74405 19.1543 9.82899 19.0697 9.89694C18.9785 9.96489 18.8809 9.99887 18.7767 9.99887C18.6725 10.0057 18.5749 9.98188 18.4837 9.92752L15.9935 8.36806L13.5033 9.92752C13.4642 9.94791 13.4186 9.96489 13.3665 9.97848C13.321 9.99207 13.2754 9.99887 13.2298 9.99887C13.1777 9.99887 13.1224 9.98868 13.0638 9.96829C13.0117 9.9547 12.9629 9.93092 12.9173 9.89694C12.8327 9.82899 12.7708 9.74405 12.7318 9.64213C12.6992 9.5402 12.6927 9.43488 12.7122 9.32616L13.3568 6.37033L11.179 4.37259C11.0944 4.29785 11.0391 4.20612 11.013 4.0974C10.987 3.98868 10.9902 3.88335 11.0228 3.78143C11.0553 3.67271 11.1107 3.58437 11.1888 3.51642C11.2734 3.44847 11.3678 3.4077 11.472 3.39411L14.3626 3.12911L15.5052 0.336353C15.5443 0.234428 15.6094 0.152888 15.7005 0.0917327C15.7917 0.0305776 15.8893 0 15.9935 0C16.0977 0 16.1953 0.0305776 16.2865 0.0917327C16.3776 0.152888 16.4427 0.234428 16.4818 0.336353L17.6244 3.12911L20.515 3.39411C20.6191 3.4077 20.7103 3.44847 20.7884 3.51642C20.8731 3.58437 20.9316 3.67271 20.9642 3.78143Z" fill="#111111"/>
<path d="M31.9599 3.78143C31.9924 3.88335 31.9957 3.98868 31.9696 4.0974C31.9436 4.20612 31.8883 4.29785 31.8036 4.37259L29.6259 6.37033L30.2704 9.32616C30.2899 9.43488 30.2802 9.5402 30.2411 9.64213C30.2086 9.74405 30.15 9.82899 30.0653 9.89694C29.9742 9.96489 29.8765 9.99887 29.7724 9.99887C29.6682 10.0057 29.5705 9.98188 29.4794 9.92752L26.9892 8.36806L24.4989 9.92752C24.4599 9.94791 24.4143 9.96489 24.3622 9.97848C24.3166 9.99207 24.2711 9.99887 24.2255 9.99887C24.1734 9.99887 24.1181 9.98868 24.0595 9.96829C24.0074 9.9547 23.9586 9.93092 23.913 9.89694C23.8284 9.82899 23.7665 9.74405 23.7274 9.64213C23.6949 9.5402 23.6884 9.43488 23.7079 9.32616L24.3524 6.37033L22.1747 4.37259C22.0901 4.29785 22.0347 4.20612 22.0087 4.0974C21.9827 3.98868 21.9859 3.88335 22.0185 3.78143C22.051 3.67271 22.1064 3.58437 22.1845 3.51642C22.2691 3.44847 22.3635 3.4077 22.4677 3.39411L25.3583 3.12911L26.5009 0.336353C26.5399 0.234428 26.605 0.152888 26.6962 0.0917327C26.7873 0.0305776 26.885 0 26.9892 0C27.0933 0 27.191 0.0305776 27.2821 0.0917327C27.3733 0.152888 27.4384 0.234428 27.4774 0.336353L28.62 3.12911L31.5106 3.39411C31.6148 3.4077 31.706 3.44847 31.7841 3.51642C31.8687 3.58437 31.9273 3.67271 31.9599 3.78143Z" fill="#111111"/>
<path d="M42.9555 3.78143C42.9881 3.88335 42.9913 3.98868 42.9653 4.0974C42.9393 4.20612 42.8839 4.29785 42.7993 4.37259L40.6215 6.37033L41.2661 9.32616C41.2856 9.43488 41.2758 9.5402 41.2368 9.64213C41.2042 9.74405 41.1456 9.82899 41.061 9.89694C40.9699 9.96489 40.8722 9.99887 40.768 9.99887C40.6639 10.0057 40.5662 9.98188 40.4751 9.92752L37.9848 8.36806L35.4946 9.92752C35.4555 9.94791 35.41 9.96489 35.3579 9.97848C35.3123 9.99207 35.2667 9.99887 35.2212 9.99887C35.1691 9.99887 35.1137 9.98868 35.0551 9.96829C35.0031 9.9547 34.9542 9.93092 34.9087 9.89694C34.824 9.82899 34.7622 9.74405 34.7231 9.64213C34.6906 9.5402 34.684 9.43488 34.7036 9.32616L35.3481 6.37033L33.1704 4.37259C33.0857 4.29785 33.0304 4.20612 33.0044 4.0974C32.9783 3.98868 32.9816 3.88335 33.0141 3.78143C33.0467 3.67271 33.102 3.58437 33.1801 3.51642C33.2648 3.44847 33.3592 3.4077 33.4633 3.39411L36.354 3.12911L37.4965 0.336353C37.5356 0.234428 37.6007 0.152888 37.6919 0.0917327C37.783 0.0305776 37.8807 0 37.9848 0C38.089 0 38.1867 0.0305776 38.2778 0.0917327C38.3689 0.152888 38.434 0.234428 38.4731 0.336353L39.6157 3.12911L42.5063 3.39411C42.6105 3.4077 42.7016 3.44847 42.7798 3.51642C42.8644 3.58437 42.923 3.67271 42.9555 3.78143Z" fill="#111111"/>
<path d="M53.9512 3.78143C53.9838 3.88335 53.987 3.98868 53.961 4.0974C53.9349 4.20612 53.8796 4.29785 53.7949 4.37259L51.6172 6.37033L52.2617 9.32616C52.2813 9.43488 52.2715 9.5402 52.2324 9.64213C52.1999 9.74405 52.1413 9.82899 52.0567 9.89694C51.9655 9.96489 51.8679 9.99887 51.7637 9.99887C51.6595 10.0057 51.5619 9.98188 51.4707 9.92752L48.9805 8.36806L46.4903 9.92752C46.4512 9.94791 46.4056 9.96489 46.3535 9.97848C46.308 9.99207 46.2624 9.99887 46.2168 9.99887C46.1647 9.99887 46.1094 9.98868 46.0508 9.96829C45.9987 9.9547 45.9499 9.93092 45.9043 9.89694C45.8197 9.82899 45.7578 9.74405 45.7188 9.64213C45.6862 9.5402 45.6797 9.43488 45.6992 9.32616L46.3438 6.37033L44.166 4.37259C44.0814 4.29785 44.0261 4.20612 44 4.0974C43.974 3.98868 43.9772 3.88335 44.0098 3.78143C44.0423 3.67271 44.0977 3.58437 44.1758 3.51642C44.2604 3.44847 44.3548 3.4077 44.459 3.39411L47.3496 3.12911L48.4922 0.336353C48.5313 0.234428 48.5964 0.152888 48.6875 0.0917327C48.7787 0.0305776 48.8763 0 48.9805 0C49.0847 0 49.1823 0.0305776 49.2735 0.0917327C49.3646 0.152888 49.4297 0.234428 49.4688 0.336353L50.6114 3.12911L53.502 3.39411C53.6061 3.4077 53.6973 3.44847 53.7754 3.51642C53.8601 3.58437 53.9186 3.67271 53.9512 3.78143Z" fill="#111111"/>
</svg>
