<svg width="64" height="12" viewBox="0 0 64 12" fill="none" xmlns="http://www.w3.org/2000/svg">
<path d="M11.9674 4.53771C12.0065 4.66002 12.0104 4.78641 11.9792 4.91687C11.9479 5.04734 11.8815 5.15742 11.7799 5.24711L9.16544 7.64439L9.93921 11.1914C9.96266 11.3219 9.95093 11.4482 9.90404 11.5706C9.86496 11.6929 9.79461 11.7948 9.69301 11.8763C9.58359 11.9579 9.46635 11.9986 9.34129 11.9986C9.21624 12.0068 9.099 11.9783 8.98958 11.913L6 10.0417L3.01042 11.913C2.96353 11.9375 2.90881 11.9579 2.84629 11.9742C2.79158 11.9905 2.73686 11.9986 2.68215 11.9986C2.61963 11.9986 2.55319 11.9864 2.48285 11.9619C2.42032 11.9456 2.3617 11.9171 2.30699 11.8763C2.20538 11.7948 2.13113 11.6929 2.08424 11.5706C2.04516 11.4482 2.03734 11.3219 2.06079 11.1914L2.83456 7.64439L0.220148 5.24711C0.118541 5.15742 0.0521059 5.04734 0.0208424 4.91687C-0.0104212 4.78641 -0.00651324 4.66002 0.0325662 4.53771C0.0716457 4.40725 0.138081 4.30125 0.231871 4.21971C0.333478 4.13817 0.446808 4.08924 0.571863 4.07293L4.04212 3.75493L5.41381 0.403624C5.4607 0.281314 5.53886 0.183465 5.64828 0.110079C5.75771 0.0366931 5.87495 0 6 0C6.12505 0 6.24229 0.0366931 6.35172 0.110079C6.46114 0.183465 6.5393 0.281314 6.58619 0.403624L7.95788 3.75493L11.4281 4.07293C11.5532 4.08924 11.6626 4.13817 11.7564 4.21971C11.858 4.30125 11.9284 4.40725 11.9674 4.53771Z" fill="#111111"/>
<path d="M24.9674 4.53771C25.0065 4.66002 25.0104 4.78641 24.9792 4.91687C24.9479 5.04734 24.8815 5.15742 24.7799 5.24711L22.1654 7.64439L22.9392 11.1914C22.9627 11.3219 22.9509 11.4482 22.904 11.5706C22.865 11.6929 22.7946 11.7948 22.693 11.8763C22.5836 11.9579 22.4663 11.9986 22.3413 11.9986C22.2162 12.0068 22.099 11.9783 21.9896 11.913L19 10.0417L16.0104 11.913C15.9635 11.9375 15.9088 11.9579 15.8463 11.9742C15.7916 11.9905 15.7369 11.9986 15.6822 11.9986C15.6196 11.9986 15.5532 11.9864 15.4828 11.9619C15.4203 11.9456 15.3617 11.9171 15.307 11.8763C15.2054 11.7948 15.1311 11.6929 15.0842 11.5706C15.0452 11.4482 15.0373 11.3219 15.0608 11.1914L15.8346 7.64439L13.2201 5.24711C13.1185 5.15742 13.0521 5.04734 13.0208 4.91687C12.9896 4.78641 12.9935 4.66002 13.0326 4.53771C13.0716 4.40725 13.1381 4.30125 13.2319 4.21971C13.3335 4.13817 13.4468 4.08924 13.5719 4.07293L17.0421 3.75493L18.4138 0.403624C18.4607 0.281314 18.5389 0.183465 18.6483 0.110079C18.7577 0.0366931 18.8749 0 19 0C19.1251 0 19.2423 0.0366931 19.3517 0.110079C19.4611 0.183465 19.5393 0.281314 19.5862 0.403624L20.9579 3.75493L24.4281 4.07293C24.5532 4.08924 24.6626 4.13817 24.7564 4.21971C24.858 4.30125 24.9284 4.40725 24.9674 4.53771Z" fill="#111111"/>
<path d="M37.9674 4.53771C38.0065 4.66002 38.0104 4.78641 37.9792 4.91687C37.9479 5.04734 37.8815 5.15742 37.7799 5.24711L35.1654 7.64439L35.9392 11.1914C35.9627 11.3219 35.9509 11.4482 35.904 11.5706C35.865 11.6929 35.7946 11.7948 35.693 11.8763C35.5836 11.9579 35.4663 11.9986 35.3413 11.9986C35.2162 12.0068 35.099 11.9783 34.9896 11.913L32 10.0417L29.0104 11.913C28.9635 11.9375 28.9088 11.9579 28.8463 11.9742C28.7916 11.9905 28.7369 11.9986 28.6822 11.9986C28.6196 11.9986 28.5532 11.9864 28.4828 11.9619C28.4203 11.9456 28.3617 11.9171 28.307 11.8763C28.2054 11.7948 28.1311 11.6929 28.0842 11.5706C28.0452 11.4482 28.0373 11.3219 28.0608 11.1914L28.8346 7.64439L26.2201 5.24711C26.1185 5.15742 26.0521 5.04734 26.0208 4.91687C25.9896 4.78641 25.9935 4.66002 26.0326 4.53771C26.0716 4.40725 26.1381 4.30125 26.2319 4.21971C26.3335 4.13817 26.4468 4.08924 26.5719 4.07293L30.0421 3.75493L31.4138 0.403624C31.4607 0.281314 31.5389 0.183465 31.6483 0.110079C31.7577 0.0366931 31.8749 0 32 0C32.1251 0 32.2423 0.0366931 32.3517 0.110079C32.4611 0.183465 32.5393 0.281314 32.5862 0.403624L33.9579 3.75493L37.4281 4.07293C37.5532 4.08924 37.6626 4.13817 37.7564 4.21971C37.858 4.30125 37.9284 4.40725 37.9674 4.53771Z" fill="#111111"/>
<path d="M50.9674 4.53771C51.0065 4.66002 51.0104 4.78641 50.9792 4.91687C50.9479 5.04734 50.8815 5.15742 50.7799 5.24711L48.1654 7.64439L48.9392 11.1914C48.9627 11.3219 48.9509 11.4482 48.904 11.5706C48.865 11.6929 48.7946 11.7948 48.693 11.8763C48.5836 11.9579 48.4663 11.9986 48.3413 11.9986C48.2162 12.0068 48.099 11.9783 47.9896 11.913L45 10.0417L42.0104 11.913C41.9635 11.9375 41.9088 11.9579 41.8463 11.9742C41.7916 11.9905 41.7369 11.9986 41.6822 11.9986C41.6196 11.9986 41.5532 11.9864 41.4828 11.9619C41.4203 11.9456 41.3617 11.9171 41.307 11.8763C41.2054 11.7948 41.1311 11.6929 41.0842 11.5706C41.0452 11.4482 41.0373 11.3219 41.0608 11.1914L41.8346 7.64439L39.2201 5.24711C39.1185 5.15742 39.0521 5.04734 39.0208 4.91687C38.9896 4.78641 38.9935 4.66002 39.0326 4.53771C39.0716 4.40725 39.1381 4.30125 39.2319 4.21971C39.3335 4.13817 39.4468 4.08924 39.5719 4.07293L43.0421 3.75493L44.4138 0.403624C44.4607 0.281314 44.5389 0.183465 44.6483 0.110079C44.7577 0.0366931 44.8749 0 45 0C45.1251 0 45.2423 0.0366931 45.3517 0.110079C45.4611 0.183465 45.5393 0.281314 45.5862 0.403624L46.9579 3.75493L50.4281 4.07293C50.5532 4.08924 50.6626 4.13817 50.7564 4.21971C50.858 4.30125 50.9284 4.40725 50.9674 4.53771Z" fill="#111111"/>
<path d="M63.9674 4.53771C64.0065 4.66002 64.0104 4.78641 63.9792 4.91687C63.9479 5.04734 63.8815 5.15742 63.7799 5.24711L61.1654 7.64439L61.9392 11.1914C61.9627 11.3219 61.9509 11.4482 61.904 11.5706C61.865 11.6929 61.7946 11.7948 61.693 11.8763C61.5836 11.9579 61.4663 11.9986 61.3413 11.9986C61.2162 12.0068 61.099 11.9783 60.9896 11.913L58 10.0417L55.0104 11.913C54.9635 11.9375 54.9088 11.9579 54.8463 11.9742C54.7916 11.9905 54.7369 11.9986 54.6822 11.9986C54.6196 11.9986 54.5532 11.9864 54.4828 11.9619C54.4203 11.9456 54.3617 11.9171 54.307 11.8763C54.2054 11.7948 54.1311 11.6929 54.0842 11.5706C54.0452 11.4482 54.0373 11.3219 54.0608 11.1914L54.8346 7.64439L52.2201 5.24711C52.1185 5.15742 52.0521 5.04734 52.0208 4.91687C51.9896 4.78641 51.9935 4.66002 52.0326 4.53771C52.0716 4.40725 52.1381 4.30125 52.2319 4.21971C52.3335 4.13817 52.4468 4.08924 52.5719 4.07293L56.0421 3.75493L57.4138 0.403624C57.4607 0.281314 57.5389 0.183465 57.6483 0.110079C57.7577 0.0366931 57.8749 0 58 0C58.1251 0 58.2423 0.0366931 58.3517 0.110079C58.4611 0.183465 58.5393 0.281314 58.5862 0.403624L59.9579 3.75493L63.4281 4.07293C63.5532 4.08924 63.6626 4.13817 63.7564 4.21971C63.858 4.30125 63.9284 4.40725 63.9674 4.53771Z" fill="#111111"/>
</svg>
