<svg width="39" height="22" viewBox="0 0 39 22" fill="none" xmlns="http://www.w3.org/2000/svg">
<rect y="0.688965" width="39" height="21" rx="10.5" fill="#E02F60"/>
<path d="M11.2686 11.917V10.756H15.8946V11.917H11.2686ZM15.0756 8.38896H16.3626V14.689H15.0756V8.38896ZM10.8456 8.38896H12.1326V14.689H10.8456V8.38896ZM18.7177 11.539C18.7177 11.941 18.8017 12.298 18.9697 12.61C19.1377 12.922 19.3687 13.168 19.6627 13.348C19.9567 13.528 20.2987 13.618 20.6887 13.618C21.0787 13.618 21.4207 13.528 21.7147 13.348C22.0087 13.168 22.2367 12.922 22.3987 12.61C22.5667 12.298 22.6507 11.941 22.6507 11.539C22.6507 11.137 22.5697 10.78 22.4077 10.468C22.2457 10.156 22.0177 9.90996 21.7237 9.72996C21.4297 9.54996 21.0847 9.45996 20.6887 9.45996C20.2987 9.45996 19.9567 9.54996 19.6627 9.72996C19.3687 9.90996 19.1377 10.156 18.9697 10.468C18.8017 10.78 18.7177 11.137 18.7177 11.539ZM17.3587 11.539C17.3587 11.059 17.4427 10.621 17.6107 10.225C17.7787 9.82296 18.0127 9.47496 18.3127 9.18096C18.6127 8.88696 18.9637 8.66196 19.3657 8.50596C19.7737 8.34396 20.2147 8.26296 20.6887 8.26296C21.1687 8.26296 21.6097 8.34396 22.0117 8.50596C22.4137 8.66196 22.7647 8.88696 23.0647 9.18096C23.3707 9.47496 23.6047 9.82296 23.7667 10.225C23.9347 10.621 24.0187 11.059 24.0187 11.539C24.0187 12.013 23.9347 12.454 23.7667 12.862C23.6047 13.264 23.3737 13.615 23.0737 13.915C22.7797 14.215 22.4287 14.449 22.0207 14.617C21.6187 14.779 21.1747 14.86 20.6887 14.86C20.2027 14.86 19.7557 14.779 19.3477 14.617C18.9457 14.449 18.5947 14.215 18.2947 13.915C17.9947 13.615 17.7637 13.264 17.6017 12.862C17.4397 12.454 17.3587 12.013 17.3587 11.539ZM24.1111 9.54996V8.38896H28.7911V9.54996H27.0901V14.689H25.8031V9.54996H24.1111Z" fill="white"/>
</svg>
