<svg width="21" height="18" viewBox="0 0 21 18" fill="none" xmlns="http://www.w3.org/2000/svg">
<path d="M15.0679 16.243C14.838 16.243 14.6176 16.1506 14.455 15.9863C14.2925 15.8219 14.2012 15.5989 14.2012 15.3665H12.4678C12.4678 16.0639 12.7417 16.7327 13.2293 17.2259C13.717 17.719 14.3783 17.9961 15.0679 17.9961C15.7575 17.9961 16.4189 17.719 16.9065 17.2259C17.3941 16.7327 17.668 16.0639 17.668 15.3665H15.9346C15.9346 15.5989 15.8433 15.8219 15.6808 15.9863C15.5182 16.1506 15.2978 16.243 15.0679 16.243Z" fill="#111111"/>
<path d="M8.96885 16.243C8.73899 16.243 8.51853 16.1506 8.35599 15.9863C8.19346 15.8219 8.10214 15.5989 8.10214 15.3665H6.3606C6.3606 15.7123 6.42795 16.0547 6.55881 16.3742C6.68967 16.6937 6.88147 16.9841 7.12327 17.2286C7.36506 17.4731 7.65212 17.6671 7.96804 17.7995C8.28396 17.9318 8.62257 17.9999 8.96452 17.9999C9.30647 17.9999 9.64507 17.9318 9.961 17.7995C10.2769 17.6671 10.564 17.4731 10.8058 17.2286C11.0476 16.9841 11.2394 16.6937 11.3702 16.3742C11.5011 16.0547 11.5684 15.7123 11.5684 15.3665H9.83502C9.83502 15.5988 9.74378 15.8217 9.58136 15.9861C9.41894 16.1504 9.19862 16.2429 8.96885 16.243Z" fill="#111111"/>
<path d="M20.2759 1.74072C20.2287 1.73258 20.1808 1.72855 20.1329 1.72867H6.26553C6.03566 1.72867 5.81521 1.82102 5.65267 1.9854C5.49013 2.14978 5.39882 2.37273 5.39882 2.60521C5.39882 2.83768 5.49013 3.06063 5.65267 3.22502C5.81521 3.3894 6.03566 3.48175 6.26553 3.48175H19.1096L18.8805 4.87216L17.6655 12.2472H6.35924L3.41242 4.87216L1.65463 0.511371C1.56167 0.306225 1.39406 0.145239 1.1867 0.0619259C0.979329 -0.0213872 0.74818 -0.0206085 0.541366 0.0641C0.334553 0.148808 0.16801 0.31092 0.0764063 0.516688C-0.0151973 0.722456 -0.0248034 0.956026 0.0495876 1.16878L2.8561 8.13344L4.77153 13.2678C4.91292 13.7 5.20489 14.0002 5.62633 14.0002H18.3995C18.6047 14.0003 18.8033 13.9268 18.96 13.7926C19.1166 13.6585 19.2211 13.4725 19.2548 13.2678L20.6383 4.87216L20.9882 2.74929C21.026 2.52002 20.9721 2.28497 20.8386 2.09583C20.705 1.9067 20.5026 1.77896 20.2759 1.74072Z" fill="#111111"/>
</svg>
