<svg width="42" height="22" viewBox="0 0 42 22" fill="none" xmlns="http://www.w3.org/2000/svg">
<rect y="0.688965" width="42" height="21" rx="10.5" fill="#516CF4"/>
<path d="M15.2983 8.38896H16.5403V15.004L12.0583 10.783V14.689H10.8163V8.07396L15.2983 12.295V8.38896ZM18.7371 14.689V13.6H21.9141V14.689H18.7371ZM18.7371 9.47796V8.38896H21.9141V9.47796H18.7371ZM18.7371 11.881V10.81H21.7341V11.881H18.7371ZM17.9091 8.38896H19.1511V14.689H17.9091V8.38896ZM28.9605 12.304L30.3105 8.38896H31.8225L29.1675 15.04L27.1875 10.9L25.1985 15.04L22.5525 8.38896H24.0645L25.4325 12.304L27.1875 8.07396L28.9605 12.304Z" fill="white"/>
</svg>
