<svg width="52" height="22" viewBox="0 0 52 22" fill="none" xmlns="http://www.w3.org/2000/svg">
<rect y="0.688965" width="52" height="21" rx="10.5" fill="#111111"/>
<path d="M10.4578 9.54996V8.38896H15.1378V9.54996H13.4368V14.689H12.1498V9.54996H10.4578ZM15.8691 8.38896H17.1741V14.689H15.8691V8.38896ZM18.5321 8.38896H19.8551V14.689H18.5321V8.38896ZM22.0961 8.38896H23.6261L21.0161 11.341L23.7611 14.689H22.1951L19.4771 11.377L22.0961 8.38896ZM24.0984 9.54996V8.38896H28.7784V9.54996H27.0774V14.689H25.7904V9.54996H24.0984ZM30.0604 11.539C30.0604 11.941 30.1444 12.298 30.3124 12.61C30.4804 12.922 30.7114 13.168 31.0054 13.348C31.2994 13.528 31.6414 13.618 32.0314 13.618C32.4214 13.618 32.7634 13.528 33.0574 13.348C33.3514 13.168 33.5794 12.922 33.7414 12.61C33.9094 12.298 33.9934 11.941 33.9934 11.539C33.9934 11.137 33.9124 10.78 33.7504 10.468C33.5884 10.156 33.3604 9.90996 33.0664 9.72996C32.7724 9.54996 32.4274 9.45996 32.0314 9.45996C31.6414 9.45996 31.2994 9.54996 31.0054 9.72996C30.7114 9.90996 30.4804 10.156 30.3124 10.468C30.1444 10.78 30.0604 11.137 30.0604 11.539ZM28.7014 11.539C28.7014 11.059 28.7854 10.621 28.9534 10.225C29.1214 9.82296 29.3554 9.47496 29.6554 9.18096C29.9554 8.88696 30.3064 8.66196 30.7084 8.50596C31.1164 8.34396 31.5574 8.26296 32.0314 8.26296C32.5114 8.26296 32.9524 8.34396 33.3544 8.50596C33.7564 8.66196 34.1074 8.88696 34.4074 9.18096C34.7134 9.47496 34.9474 9.82296 35.1094 10.225C35.2774 10.621 35.3614 11.059 35.3614 11.539C35.3614 12.013 35.2774 12.454 35.1094 12.862C34.9474 13.264 34.7164 13.615 34.4164 13.915C34.1224 14.215 33.7714 14.449 33.3634 14.617C32.9614 14.779 32.5174 14.86 32.0314 14.86C31.5454 14.86 31.0984 14.779 30.6904 14.617C30.2884 14.449 29.9374 14.215 29.6374 13.915C29.3374 13.615 29.1064 13.264 28.9444 12.862C28.7824 12.454 28.7014 12.013 28.7014 11.539ZM36.3564 8.38896H37.6794V14.689H36.3564V8.38896ZM39.9204 8.38896H41.4504L38.8404 11.341L41.5854 14.689H40.0194L37.3014 11.377L39.9204 8.38896Z" fill="white"/>
</svg>
